<svg width="223" height="105" viewBox="0 0 223 105" fill="none" xmlns="http://www.w3.org/2000/svg">
<path d="M3.348 76.8015C2.88 76.8015 2.484 76.6395 2.16 76.3155C1.836 75.9915 1.674 75.5955 1.674 75.1275C1.674 74.6595 1.836 74.2635 2.16 73.9395C2.484 73.6155 2.88 73.4535 3.348 73.4535C3.798 73.4535 4.176 73.6155 4.482 73.9395C4.806 74.2635 4.968 74.6595 4.968 75.1275C4.968 75.5955 4.806 75.9915 4.482 76.3155C4.176 76.6395 3.798 76.8015 3.348 76.8015ZM4.536 79.2045V94.0005H2.079V79.2045H4.536ZM15.9325 78.9345C17.7325 78.9345 19.1905 79.4835 20.3065 80.5815C21.4225 81.6615 21.9805 83.2275 21.9805 85.2795V94.0005H19.5505V85.6305C19.5505 84.1545 19.1815 83.0295 18.4435 82.2555C17.7055 81.4635 16.6975 81.0675 15.4195 81.0675C14.1235 81.0675 13.0885 81.4725 12.3145 82.2825C11.5585 83.0925 11.1805 84.2715 11.1805 85.8195V94.0005H8.72353V79.2045H11.1805V81.3105C11.6665 80.5545 12.3235 79.9695 13.1515 79.5555C13.9975 79.1415 14.9245 78.9345 15.9325 78.9345ZM32.015 81.2295H28.91V94.0005H26.453V81.2295H24.536V79.2045H26.453V78.1515C26.453 76.4955 26.876 75.2895 27.722 74.5335C28.586 73.7595 29.963 73.3725 31.853 73.3725V75.4245C30.773 75.4245 30.008 75.6405 29.558 76.0725C29.126 76.4865 28.91 77.1795 28.91 78.1515V79.2045H32.015V81.2295ZM41.3328 94.2435C39.9468 94.2435 38.6868 93.9285 37.5528 93.2985C36.4368 92.6685 35.5548 91.7775 34.9068 90.6255C34.2768 89.4555 33.9618 88.1055 33.9618 86.5755C33.9618 85.0635 34.2858 83.7315 34.9338 82.5795C35.5998 81.4095 36.4998 80.5185 37.6338 79.9065C38.7678 79.2765 40.0368 78.9615 41.4408 78.9615C42.8448 78.9615 44.1138 79.2765 45.2478 79.9065C46.3818 80.5185 47.2728 81.4005 47.9208 82.5525C48.5868 83.7045 48.9198 85.0455 48.9198 86.5755C48.9198 88.1055 48.5778 89.4555 47.8938 90.6255C47.2278 91.7775 46.3188 92.6685 45.1668 93.2985C44.0148 93.9285 42.7368 94.2435 41.3328 94.2435ZM41.3328 92.0835C42.2148 92.0835 43.0428 91.8765 43.8168 91.4625C44.5908 91.0485 45.2118 90.4275 45.6798 89.5995C46.1658 88.7715 46.4088 87.7635 46.4088 86.5755C46.4088 85.3875 46.1748 84.3795 45.7068 83.5515C45.2388 82.7235 44.6268 82.1115 43.8708 81.7155C43.1148 81.3015 42.2958 81.0945 41.4138 81.0945C40.5138 81.0945 39.6858 81.3015 38.9298 81.7155C38.1918 82.1115 37.5978 82.7235 37.1478 83.5515C36.6978 84.3795 36.4728 85.3875 36.4728 86.5755C36.4728 87.7815 36.6888 88.7985 37.1208 89.6265C37.5708 90.4545 38.1648 91.0755 38.9028 91.4895C39.6408 91.8855 40.4508 92.0835 41.3328 92.0835ZM65.6503 76.6935C67.6483 76.6935 69.3853 77.0715 70.8613 77.8275C72.3373 78.5835 73.4713 79.6455 74.2633 81.0135C75.0553 82.3635 75.4513 83.9295 75.4513 85.7115C75.4513 87.1335 75.2173 88.5015 74.7493 89.8155C74.2813 91.1115 73.5973 92.1645 72.6973 92.9745C71.8153 93.7845 70.7803 94.1895 69.5923 94.1895C68.6923 94.1895 67.9993 93.9645 67.5133 93.5145C67.0273 93.0645 66.7483 92.4525 66.6763 91.6785C66.1183 92.4525 65.4073 93.0645 64.5433 93.5145C63.6973 93.9645 62.7973 94.1895 61.8433 94.1895C60.4753 94.1895 59.3953 93.7755 58.6033 92.9475C57.8293 92.1015 57.4423 90.9675 57.4423 89.5455C57.4423 88.1955 57.7213 86.9355 58.2793 85.7655C58.8553 84.5955 59.6473 83.6595 60.6553 82.9575C61.6633 82.2375 62.8063 81.8775 64.0843 81.8775C65.7943 81.8775 66.9463 82.5255 67.5403 83.8215L67.8373 82.1475H69.9703L68.6203 89.9505C68.5663 90.2925 68.5393 90.6075 68.5393 90.8955C68.5393 91.9755 69.0163 92.5155 69.9703 92.5155C70.6903 92.5155 71.3113 92.1735 71.8333 91.4895C72.3733 90.8055 72.7783 89.9505 73.0483 88.9245C73.3183 87.8805 73.4533 86.8545 73.4533 85.8465C73.4533 83.4885 72.7423 81.6615 71.3203 80.3655C69.9163 79.0695 67.9273 78.4215 65.3533 78.4215C63.2113 78.4215 61.2763 78.9435 59.5483 79.9875C57.8383 81.0135 56.4973 82.4265 55.5253 84.2265C54.5533 86.0265 54.0673 88.0155 54.0673 90.1935C54.0493 92.5695 54.7603 94.3965 56.2003 95.6745C57.6403 96.9705 59.6383 97.6185 62.1943 97.6185C63.8863 97.6185 65.3803 97.3125 66.6763 96.7005L67.0003 98.3745C65.3983 99.0405 63.6343 99.3735 61.7083 99.3735C59.7823 99.3735 58.0813 99.0045 56.6053 98.2665C55.1473 97.5465 54.0133 96.5025 53.2033 95.1345C52.4113 93.7845 52.0153 92.2095 52.0153 90.4095C52.0153 87.8715 52.6003 85.5585 53.7703 83.4705C54.9403 81.3645 56.5603 79.7085 58.6303 78.5025C60.7183 77.2965 63.0583 76.6935 65.6503 76.6935ZM62.5723 92.2725C63.3823 92.2725 64.1293 92.0385 64.8133 91.5705C65.4973 91.0845 66.0373 90.4365 66.4333 89.6265C66.8293 88.7985 67.0273 87.8985 67.0273 86.9265C67.0273 85.9905 66.7663 85.2345 66.2443 84.6585C65.7403 84.0645 65.0203 83.7675 64.0843 83.7675C63.2203 83.7675 62.4553 84.0285 61.7893 84.5505C61.1413 85.0545 60.6373 85.7295 60.2773 86.5755C59.9173 87.4035 59.7373 88.2675 59.7373 89.1675C59.7373 90.1215 59.9803 90.8775 60.4663 91.4355C60.9523 91.9935 61.6543 92.2725 62.5723 92.2725ZM97.2861 78.9345C98.4381 78.9345 99.4641 79.1775 100.364 79.6635C101.264 80.1315 101.975 80.8425 102.497 81.7965C103.019 82.7505 103.28 83.9115 103.28 85.2795V94.0005H100.85V85.6305C100.85 84.1545 100.481 83.0295 99.7431 82.2555C99.0231 81.4635 98.0421 81.0675 96.8001 81.0675C95.5221 81.0675 94.5051 81.4815 93.7491 82.3095C92.9931 83.1195 92.6151 84.2985 92.6151 85.8465V94.0005H90.1851V85.6305C90.1851 84.1545 89.8161 83.0295 89.0781 82.2555C88.3581 81.4635 87.3771 81.0675 86.1351 81.0675C84.8571 81.0675 83.8401 81.4815 83.0841 82.3095C82.3281 83.1195 81.9501 84.2985 81.9501 85.8465V94.0005H79.4931V79.2045H81.9501V81.3375C82.4361 80.5635 83.0841 79.9695 83.8941 79.5555C84.7221 79.1415 85.6311 78.9345 86.6211 78.9345C87.8631 78.9345 88.9611 79.2135 89.9151 79.7715C90.8691 80.3295 91.5801 81.1485 92.0481 82.2285C92.4621 81.1845 93.1461 80.3745 94.1001 79.7985C95.0541 79.2225 96.1161 78.9345 97.2861 78.9345ZM106.392 86.5485C106.392 85.0365 106.698 83.7135 107.31 82.5795C107.922 81.4275 108.759 80.5365 109.821 79.9065C110.901 79.2765 112.098 78.9615 113.412 78.9615C114.708 78.9615 115.833 79.2405 116.787 79.7985C117.741 80.3565 118.452 81.0585 118.92 81.9045V79.2045H121.404V94.0005H118.92V91.2465C118.434 92.1105 117.705 92.8305 116.733 93.4065C115.779 93.9645 114.663 94.2435 113.385 94.2435C112.071 94.2435 110.883 93.9195 109.821 93.2715C108.759 92.6235 107.922 91.7145 107.31 90.5445C106.698 89.3745 106.392 88.0425 106.392 86.5485ZM118.92 86.5755C118.92 85.4595 118.695 84.4875 118.245 83.6595C117.795 82.8315 117.183 82.2015 116.409 81.7695C115.653 81.3195 114.816 81.0945 113.898 81.0945C112.98 81.0945 112.143 81.3105 111.387 81.7425C110.631 82.1745 110.028 82.8045 109.578 83.6325C109.128 84.4605 108.903 85.4325 108.903 86.5485C108.903 87.6825 109.128 88.6725 109.578 89.5185C110.028 90.3465 110.631 90.9855 111.387 91.4355C112.143 91.8675 112.98 92.0835 113.898 92.0835C114.816 92.0835 115.653 91.8675 116.409 91.4355C117.183 90.9855 117.795 90.3465 118.245 89.5185C118.695 88.6725 118.92 87.6915 118.92 86.5755ZM128.014 81.6075C128.446 80.7615 129.058 80.1045 129.85 79.6365C130.66 79.1685 131.641 78.9345 132.793 78.9345V81.4725H132.145C129.391 81.4725 128.014 82.9665 128.014 85.9545V94.0005H125.557V79.2045H128.014V81.6075ZM136.898 76.8015C136.43 76.8015 136.034 76.6395 135.71 76.3155C135.386 75.9915 135.224 75.5955 135.224 75.1275C135.224 74.6595 135.386 74.2635 135.71 73.9395C136.034 73.6155 136.43 73.4535 136.898 73.4535C137.348 73.4535 137.726 73.6155 138.032 73.9395C138.356 74.2635 138.518 74.6595 138.518 75.1275C138.518 75.5955 138.356 75.9915 138.032 76.3155C137.726 76.6395 137.348 76.8015 136.898 76.8015ZM138.086 79.2045V94.0005H135.629V79.2045H138.086ZM141.355 86.5755C141.355 85.0455 141.661 83.7135 142.273 82.5795C142.885 81.4275 143.731 80.5365 144.811 79.9065C145.909 79.2765 147.16 78.9615 148.564 78.9615C150.382 78.9615 151.876 79.4025 153.046 80.2845C154.234 81.1665 155.017 82.3905 155.395 83.9565H152.749C152.497 83.0565 152.002 82.3455 151.264 81.8235C150.544 81.3015 149.644 81.0405 148.564 81.0405C147.16 81.0405 146.026 81.5265 145.162 82.4985C144.298 83.4525 143.866 84.8115 143.866 86.5755C143.866 88.3575 144.298 89.7345 145.162 90.7065C146.026 91.6785 147.16 92.1645 148.564 92.1645C149.644 92.1645 150.544 91.9125 151.264 91.4085C151.984 90.9045 152.479 90.1845 152.749 89.2485H155.395C154.999 90.7605 154.207 91.9755 153.019 92.8935C151.831 93.7935 150.346 94.2435 148.564 94.2435C147.16 94.2435 145.909 93.9285 144.811 93.2985C143.731 92.6685 142.885 91.7775 142.273 90.6255C141.661 89.4735 141.355 88.1235 141.355 86.5755ZM165.127 94.2435C163.741 94.2435 162.481 93.9285 161.347 93.2985C160.231 92.6685 159.349 91.7775 158.701 90.6255C158.071 89.4555 157.756 88.1055 157.756 86.5755C157.756 85.0635 158.08 83.7315 158.728 82.5795C159.394 81.4095 160.294 80.5185 161.428 79.9065C162.562 79.2765 163.831 78.9615 165.235 78.9615C166.639 78.9615 167.908 79.2765 169.042 79.9065C170.176 80.5185 171.067 81.4005 171.715 82.5525C172.381 83.7045 172.714 85.0455 172.714 86.5755C172.714 88.1055 172.372 89.4555 171.688 90.6255C171.022 91.7775 170.113 92.6685 168.961 93.2985C167.809 93.9285 166.531 94.2435 165.127 94.2435ZM165.127 92.0835C166.009 92.0835 166.837 91.8765 167.611 91.4625C168.385 91.0485 169.006 90.4275 169.474 89.5995C169.96 88.7715 170.203 87.7635 170.203 86.5755C170.203 85.3875 169.969 84.3795 169.501 83.5515C169.033 82.7235 168.421 82.1115 167.665 81.7155C166.909 81.3015 166.09 81.0945 165.208 81.0945C164.308 81.0945 163.48 81.3015 162.724 81.7155C161.986 82.1115 161.392 82.7235 160.942 83.5515C160.492 84.3795 160.267 85.3875 160.267 86.5755C160.267 87.7815 160.483 88.7985 160.915 89.6265C161.365 90.4545 161.959 91.0755 162.697 91.4895C163.435 91.8855 164.245 92.0835 165.127 92.0835ZM176.727 94.1625C176.259 94.1625 175.863 94.0005 175.539 93.6765C175.215 93.3525 175.053 92.9565 175.053 92.4885C175.053 92.0205 175.215 91.6245 175.539 91.3005C175.863 90.9765 176.259 90.8145 176.727 90.8145C177.177 90.8145 177.555 90.9765 177.861 91.3005C178.185 91.6245 178.347 92.0205 178.347 92.4885C178.347 92.9565 178.185 93.3525 177.861 93.6765C177.555 94.0005 177.177 94.1625 176.727 94.1625ZM180.695 86.5755C180.695 85.0455 181.001 83.7135 181.613 82.5795C182.225 81.4275 183.071 80.5365 184.151 79.9065C185.249 79.2765 186.5 78.9615 187.904 78.9615C189.722 78.9615 191.216 79.4025 192.386 80.2845C193.574 81.1665 194.357 82.3905 194.735 83.9565H192.089C191.837 83.0565 191.342 82.3455 190.604 81.8235C189.884 81.3015 188.984 81.0405 187.904 81.0405C186.5 81.0405 185.366 81.5265 184.502 82.4985C183.638 83.4525 183.206 84.8115 183.206 86.5755C183.206 88.3575 183.638 89.7345 184.502 90.7065C185.366 91.6785 186.5 92.1645 187.904 92.1645C188.984 92.1645 189.884 91.9125 190.604 91.4085C191.324 90.9045 191.819 90.1845 192.089 89.2485H194.735C194.339 90.7605 193.547 91.9755 192.359 92.8935C191.171 93.7935 189.686 94.2435 187.904 94.2435C186.5 94.2435 185.249 93.9285 184.151 93.2985C183.071 92.6685 182.225 91.7775 181.613 90.6255C181.001 89.4735 180.695 88.1235 180.695 86.5755ZM204.467 94.2435C203.081 94.2435 201.821 93.9285 200.687 93.2985C199.571 92.6685 198.689 91.7775 198.041 90.6255C197.411 89.4555 197.096 88.1055 197.096 86.5755C197.096 85.0635 197.42 83.7315 198.068 82.5795C198.734 81.4095 199.634 80.5185 200.768 79.9065C201.902 79.2765 203.171 78.9615 204.575 78.9615C205.979 78.9615 207.248 79.2765 208.382 79.9065C209.516 80.5185 210.407 81.4005 211.055 82.5525C211.721 83.7045 212.054 85.0455 212.054 86.5755C212.054 88.1055 211.712 89.4555 211.028 90.6255C210.362 91.7775 209.453 92.6685 208.301 93.2985C207.149 93.9285 205.871 94.2435 204.467 94.2435ZM204.467 92.0835C205.349 92.0835 206.177 91.8765 206.951 91.4625C207.725 91.0485 208.346 90.4275 208.814 89.5995C209.3 88.7715 209.543 87.7635 209.543 86.5755C209.543 85.3875 209.309 84.3795 208.841 83.5515C208.373 82.7235 207.761 82.1115 207.005 81.7155C206.249 81.3015 205.43 81.0945 204.548 81.0945C203.648 81.0945 202.82 81.3015 202.064 81.7155C201.326 82.1115 200.732 82.7235 200.282 83.5515C199.832 84.3795 199.607 85.3875 199.607 86.5755C199.607 87.7815 199.823 88.7985 200.255 89.6265C200.705 90.4545 201.299 91.0755 202.037 91.4895C202.775 91.8855 203.585 92.0835 204.467 92.0835Z" fill="#707070"/>
<path d="M107.918 16.3905V46.0005H99.686V29.6625L94.1 46.0005H87.212L81.584 29.5365V46.0005H73.352V16.3905H83.306L90.74 35.6265L98.006 16.3905H107.918ZM111.26 34.1985C111.26 31.7625 111.694 29.6345 112.562 27.8145C113.458 25.9945 114.662 24.5945 116.174 23.6145C117.714 22.6345 119.422 22.1445 121.298 22.1445C122.922 22.1445 124.322 22.4665 125.498 23.1105C126.674 23.7545 127.584 24.6225 128.228 25.7145V22.4385H136.46V46.0005H128.228V42.7245C127.584 43.8165 126.66 44.6845 125.456 45.3285C124.28 45.9725 122.894 46.2945 121.298 46.2945C119.422 46.2945 117.714 45.8045 116.174 44.8245C114.662 43.8445 113.458 42.4445 112.562 40.6245C111.694 38.7765 111.26 36.6345 111.26 34.1985ZM128.228 34.1985C128.228 32.6865 127.808 31.4965 126.968 30.6285C126.156 29.7605 125.148 29.3265 123.944 29.3265C122.712 29.3265 121.69 29.7605 120.878 30.6285C120.066 31.4685 119.66 32.6585 119.66 34.1985C119.66 35.7105 120.066 36.9145 120.878 37.8105C121.69 38.6785 122.712 39.1125 123.944 39.1125C125.148 39.1125 126.156 38.6785 126.968 37.8105C127.808 36.9425 128.228 35.7385 128.228 34.1985ZM149.383 26.5965C150.307 25.2525 151.427 24.1885 152.743 23.4045C154.059 22.6205 155.473 22.2285 156.985 22.2285V31.0065H154.675C152.883 31.0065 151.553 31.3565 150.685 32.0565C149.817 32.7565 149.383 33.9745 149.383 35.7105V46.0005H141.151V22.4385H149.383V26.5965ZM164.094 20.2545C162.638 20.2545 161.462 19.8625 160.566 19.0785C159.698 18.2665 159.264 17.2585 159.264 16.0545C159.264 14.8225 159.698 13.8005 160.566 12.9885C161.462 12.1765 162.638 11.7705 164.094 11.7705C165.522 11.7705 166.67 12.1765 167.538 12.9885C168.434 13.8005 168.882 14.8225 168.882 16.0545C168.882 17.2585 168.434 18.2665 167.538 19.0785C166.67 19.8625 165.522 20.2545 164.094 20.2545ZM168.168 22.4385V46.0005H159.936V22.4385H168.168ZM171.512 34.1985C171.512 31.7625 172.016 29.6345 173.024 27.8145C174.032 25.9945 175.432 24.5945 177.224 23.6145C179.044 22.6345 181.116 22.1445 183.44 22.1445C186.436 22.1445 188.956 22.9705 191 24.6225C193.044 26.2465 194.36 28.5285 194.948 31.4685H186.212C185.708 29.9285 184.728 29.1585 183.272 29.1585C182.236 29.1585 181.41 29.5925 180.794 30.4605C180.206 31.3005 179.912 32.5465 179.912 34.1985C179.912 35.8505 180.206 37.1105 180.794 37.9785C181.41 38.8465 182.236 39.2805 183.272 39.2805C184.756 39.2805 185.736 38.5105 186.212 36.9705H194.948C194.36 39.8825 193.044 42.1645 191 43.8165C188.956 45.4685 186.436 46.2945 183.44 46.2945C181.116 46.2945 179.044 45.8045 177.224 44.8245C175.432 43.8445 174.032 42.4445 173.024 40.6245C172.016 38.8045 171.512 36.6625 171.512 34.1985ZM209.33 46.2945C206.978 46.2945 204.864 45.8045 202.988 44.8245C201.14 43.8445 199.684 42.4445 198.62 40.6245C197.556 38.8045 197.024 36.6625 197.024 34.1985C197.024 31.7625 197.556 29.6345 198.62 27.8145C199.712 25.9945 201.182 24.5945 203.03 23.6145C204.906 22.6345 207.02 22.1445 209.372 22.1445C211.724 22.1445 213.824 22.6345 215.672 23.6145C217.548 24.5945 219.018 25.9945 220.082 27.8145C221.174 29.6345 221.72 31.7625 221.72 34.1985C221.72 36.6345 221.174 38.7765 220.082 40.6245C219.018 42.4445 217.548 43.8445 215.672 44.8245C213.796 45.8045 211.682 46.2945 209.33 46.2945ZM209.33 39.1545C210.478 39.1545 211.43 38.7345 212.186 37.8945C212.97 37.0265 213.362 35.7945 213.362 34.1985C213.362 32.6025 212.97 31.3845 212.186 30.5445C211.43 29.7045 210.492 29.2845 209.372 29.2845C208.252 29.2845 207.314 29.7045 206.558 30.5445C205.802 31.3845 205.424 32.6025 205.424 34.1985C205.424 35.8225 205.788 37.0545 206.516 37.8945C207.244 38.7345 208.182 39.1545 209.33 39.1545Z" fill="white"/>
</svg>
